<svg id="Layer_1" data-name="Layer 1" xmlns="http://www.w3.org/2000/svg" xmlns:xlink="http://www.w3.org/1999/xlink" viewBox="0 0 1920.11 1896.49"><defs><style>.cls-1{fill:none;}.cls-2{clip-path:url(#clip-path);}.cls-3{fill:#fff;}.cls-4{fill:#4f5459;opacity:0.6;}</style><clipPath id="clip-path" transform="translate(0.11 787.99)"><path class="cls-1" d="M951.46,921.82,591,266.52l721.25.21Zm.08-309,192.68-347.68L759,265Z"/></clipPath></defs><title>logo</title><rect x="0.17" y="788.05" width="1919.78" height="1079.7"/><g class="cls-2"><rect class="cls-3" x="273.54" y="745.09" width="1226.23" height="1151.22"/><path class="cls-4" d="M919.93,686c-266.33-66.63-529-448.38-586.67-852.65S444.72-844.64,711.05-778s529,448.38,586.67,852.65S1186.26,752.64,919.93,686Z" transform="translate(0.11 787.99)"/></g><polygon points="974.96 1508.45 1082.29 1693.64 1130.97 1664.97 974.96 1508.45"/><polygon points="788.07 1260.93 586.63 1351.83 621.95 1395.92 788.07 1260.93"/><polygon points="830.14 1117.01 594.34 857.63 457.34 1066.58 830.14 1117.01"/><path d="M1070.22,318.08l205.53-249a6.39,6.39,0,0,1,10.1.31l137,188.17a6.39,6.39,0,0,1-4,10.06l-342.55,60.83A6.4,6.4,0,0,1,1070.22,318.08Z" transform="translate(0.11 787.99)"/><rect x="612.96" y="958.4" width="648.1" height="117.57"/></svg>