<?xml version="1.0" encoding="utf-8"?>
<!-- Generator: Adobe Illustrator 23.0.5, SVG Export Plug-In . SVG Version: 6.00 Build 0)  -->
<svg version="1.1" id="Layer_1" xmlns="http://www.w3.org/2000/svg" xmlns:xlink="http://www.w3.org/1999/xlink" x="0px" y="0px"
	 viewBox="0 0 1920 1080" style="enable-background:new 0 0 1920 1080;" xml:space="preserve">
<style type="text/css">
	.st0{clip-path:url(#SVGID_2_);fill:#FFFFFF;}
	.st1{opacity:0.6;clip-path:url(#SVGID_2_);fill:#4F5459;}
</style>
<rect x="601" y="378" width="705" height="450"/>
<g>
	<defs>
		<path id="SVGID_1_" d="M946.29,757.26L786.6,480.66l319.39,0L946.29,757.26z M946.29,626.8l85.28-146.8H861.01L946.29,626.8z"/>
	</defs>
	<clipPath id="SVGID_2_">
		<use xlink:href="#SVGID_1_"  style="overflow:visible;"/>
	</clipPath>
	<rect x="646" y="350" class="st0" width="543" height="486"/>
	<path class="st1" d="M1095.04,641.81c-81.65,47.49-251.4-3.53-379.16-113.94s-165.14-238.43-83.5-285.91s251.4,3.53,379.16,113.94
		S1176.68,594.32,1095.04,641.81z"/>
</g>
<polygon points="965.1,666.55 1011.39,738.66 1028.07,724.66 "/>
<polygon points="877.73,576.52 814.76,634.63 831.44,648.62 "/>
<polygon points="905.77,508.12 819.14,400.04 768.86,487.14 "/>
<path d="M999.56,495.85l66.29-91.2c2.65-3.64,8.12-3.48,10.55,0.31l44.23,68.89c2.43,3.79,0.29,8.83-4.12,9.72L1006,505.88
	C1000.28,507.03,996.13,500.56,999.56,495.85z"/>
<rect x="826" y="442" width="238" height="49"/>
</svg>
